<svg width="575" height="62" viewBox="0 0 575 62" fill="none" xmlns="http://www.w3.org/2000/svg">
<g clip-path="url(#clip0_16_19)">
<path d="M300.259 61.1163C325.24 61.1499 350.211 61.3056 375.183 61.3856C389.596 61.4277 404.019 61.4571 418.424 61.4108C421.205 61.4108 424.384 61.495 427.118 59.9969C419.518 59.2478 412.288 59.677 405.91 58.0484C412.431 57.4147 419.07 57.0638 425.737 57.0006C439.122 56.9753 452.507 57.1605 465.892 57.2952C486.204 57.5028 506.51 57.7258 526.809 57.9643C528.348 57.9643 529.877 58.0737 531.444 58.1242C532.64 58.1621 533.835 58.1873 535.207 58.2252L523.157 55.856L525.085 53.7729L521.109 52.5104C524.121 51.4331 529.312 51.2732 527.44 48.8577C529.609 47.915 534.781 48.6094 534.29 46.581C533.771 44.4138 529.266 44.9734 526.198 44.9524C521.563 44.923 518.458 44.1108 516.53 41.5858C519.413 41.2997 521.934 40.8872 524.51 40.8241C529.905 40.6853 535.355 40.8957 540.713 40.6432C544.588 40.4622 548.332 39.7679 553.486 39.1366C546.747 38.6148 541.362 38.598 536.737 37.7437C530.063 36.5107 523.259 36.275 516.344 36.1782C509.661 36.0857 502.959 36.2245 496.276 36.1782C492.179 36.1488 488.082 35.8416 483.995 35.871C474.234 35.9426 464.483 36.2035 454.722 36.2582C444.73 36.3171 434.719 36.2582 424.718 36.1614C420.908 36.1277 417.108 35.8331 413.298 35.6606C413.298 35.4628 413.298 35.2693 413.298 35.0715L574.805 33.7206C574.88 33.4429 574.954 33.1609 575.037 32.879C572.544 32.6349 570.032 32.1425 567.575 32.2057C563.553 32.3024 560.531 31.8942 559.038 29.828H542.66C546.831 28.0605 553.579 29.2304 554.163 26.0406C549.195 26.1879 546.581 25.0222 545.82 23.0527C538.915 24.0122 523.315 22.4973 519.181 20.452L529.747 21.3737C529.868 21.2053 529.979 21.037 530.091 20.8729L520.821 19.1896C520.951 18.9497 521.081 18.714 521.22 18.4742C528.376 18.1712 535.624 17.864 541.927 20.1364C544.263 20.9781 545.969 21.3274 548.731 20.208C546.785 19.7156 544.421 19.4673 544.097 18.9455C543.605 18.1501 543.309 17.7924 541.529 17.2622C535.402 15.4779 528.552 15.2885 521.785 15.0066C498.714 14.0555 475.634 13.2181 452.553 12.3091C451.293 12.2586 450.078 11.9261 447.409 11.4927C485.209 9.94826 521.331 11.9766 557.528 11.3412C553.701 10.7667 549.771 10.3443 545.783 10.0787C530.267 9.05612 514.741 8.07139 499.215 7.07404C498.441 7.0555 497.678 6.98312 496.953 6.85941C485.765 4.22505 473.316 4.73006 461.433 4.14512C442.542 3.2151 423.494 2.88265 404.501 2.46182C397.086 2.28928 389.569 2.55861 382.107 2.43236C357.951 2.01154 333.786 1.49391 309.621 1.08151C300.88 0.93001 292.102 1.05625 283.352 0.921591C246.275 0.357687 209.281 -0.719618 172.195 0.399774C163.463 0.664893 154.732 0.938431 145.991 1.16568C115.403 1.95262 84.814 2.78165 54.2254 3.45917C47.1688 3.64656 40.0983 3.218 33.3972 2.1967L46.2074 0.719604H18.1493C18.0195 0.959473 17.8806 1.20354 17.7508 1.44762L25.6389 3.10988C15.9062 3.53071 15.9063 3.5307 12.4859 7.44858L21.5789 9.2455L13.0883 10.651C13.181 10.8446 13.283 11.0424 13.3757 11.2402L22.4318 12.0482C15.1647 12.4143 10.8637 14.3796 6.54418 17.056L25.5647 18.6214L18.3161 19.9471C27.678 20.9612 36.623 19.6146 46.5041 21.5378L25.7408 24.6519C25.7408 24.9044 25.7408 25.1568 25.8057 25.4093L40.3123 26.1921C39.6727 27.3956 39.2277 28.2415 38.4584 29.6807L72.6619 28.5992C55.4025 29.8617 38.0875 30.636 20.754 31.4019C20.5686 31.4019 20.3647 31.545 20.2349 31.6375C20.106 31.7346 20.0297 31.8443 20.0124 31.9574C20.0357 32.0847 20.0916 32.2104 20.1792 32.3319C22.3575 33.4597 28.0488 31.3388 28.5216 34.2887C26.334 34.8989 22.9601 35.6859 24.8695 37.0535C26.5194 38.215 29.8749 38.8841 32.0532 39.6206L18.2885 40.7821C18.1494 42.8483 18.0102 44.7841 17.8619 46.9597H8.42586L12.0686 49.6109L-0.0554199 50.8734L18.6777 52.4725C14.7197 54.0843 9.9089 52.3379 6.75735 54.5766C9.4269 55.0438 11.6237 55.5109 13.941 55.8181C18.5757 56.4367 23.3308 57.0174 28.0766 57.5224C37.0864 58.4777 46.0312 59.7402 55.1707 60.2031C70.4928 60.9774 85.9447 61.4655 101.359 61.6339C118.331 61.8148 135.341 61.495 152.34 61.3856C162.11 61.3182 171.88 61.1289 181.65 61.1836C191.151 61.2383 200.735 61.9916 210.134 61.6255C226.559 60.9774 242.883 62.4377 259.41 61.4024C272.841 60.6449 286.643 61.0952 300.259 61.1163Z" fill="#F8C525"/>
<path d="M465.725 61.9999L469.988 61.6801L469.432 60.708L465.289 61.2635C465.437 61.5076 465.586 61.7559 465.725 61.9999Z" fill="#F8C525"/>
<path d="M438.427 61.2005H443.701C443.701 61.0027 443.655 60.8049 443.636 60.6029L438.371 60.7376L438.427 61.2005Z" fill="#F8C525"/>
</g>
<defs>
<clipPath id="clip0_16_19">
<rect width="575" height="62" fill="white"/>
</clipPath>
</defs>
</svg>
