<svg width="620" height="97" viewBox="0 0 620 97" fill="none" xmlns="http://www.w3.org/2000/svg">
<g clip-path="url(#clip0_8_236)">
<path d="M323.758 95.6174C350.694 95.6701 377.619 95.9137 404.545 96.0388C420.086 96.1046 435.638 96.1507 451.17 96.0783C454.168 96.0783 457.596 96.2099 460.545 93.8661C452.349 92.6942 444.554 93.3657 437.677 90.8178C444.708 89.8262 451.867 89.2773 459.056 89.1784C473.488 89.1389 487.92 89.4286 502.353 89.6393C524.254 89.9641 546.149 90.313 568.038 90.6861C569.697 90.6861 571.346 90.8573 573.035 90.9363C574.324 90.9955 575.614 91.035 577.093 91.0943L564.1 87.3876L566.179 84.1286L561.891 82.1534C565.139 80.468 570.736 80.2178 568.717 76.4386C571.056 74.9639 576.633 76.0502 576.104 72.8767C575.544 69.4861 570.686 70.3617 567.378 70.3288C562.381 70.2827 559.033 69.012 556.954 65.0617C560.062 64.614 562.781 63.9688 565.559 63.87C571.376 63.6528 577.253 63.982 583.03 63.5869C587.208 63.3038 591.245 62.2175 596.802 61.2299C589.536 60.4135 583.729 60.3872 578.742 59.0506C571.546 57.1216 564.21 56.7529 556.754 56.6015C549.548 56.4566 542.321 56.6739 535.115 56.6015C530.698 56.5554 526.28 56.0747 521.872 56.1208C511.348 56.2327 500.833 56.641 490.309 56.7266C479.535 56.8187 468.741 56.7265 457.956 56.5751C453.849 56.5224 449.751 56.0616 445.643 55.7916C445.643 55.4822 445.643 55.1793 445.643 54.8699L619.79 52.7565C619.87 52.3219 619.95 51.8808 620.04 51.4397C617.352 51.0578 614.643 50.2875 611.994 50.3863C607.657 50.5377 604.398 49.8991 602.789 46.6664H585.129C589.626 43.9012 596.902 45.7315 597.532 40.7409C592.175 40.9714 589.356 39.1477 588.537 36.0664C581.091 37.5675 564.27 35.1973 559.812 31.9976L571.206 33.4394C571.336 33.1761 571.456 32.9127 571.576 32.656L561.581 30.0224C561.721 29.6471 561.861 29.2784 562.011 28.9032C569.727 28.4291 577.543 27.9485 584.339 31.5038C586.858 32.8206 588.697 33.367 591.675 31.6157C589.576 30.8454 587.028 30.4569 586.678 29.6406C586.148 28.3962 585.828 27.8366 583.909 27.007C577.303 24.2155 569.917 23.9192 562.621 23.4781C537.744 21.9901 512.857 20.6799 487.97 19.2578C486.611 19.1788 485.302 18.6587 482.423 17.9805C523.182 15.5642 562.131 18.7377 601.16 17.7435C597.034 16.8448 592.797 16.1839 588.497 15.7684C571.766 14.1685 555.025 12.6278 538.284 11.0675C537.449 11.0385 536.627 10.9252 535.845 10.7317C523.781 6.61019 510.358 7.40029 497.545 6.48513C477.176 5.0301 456.637 4.50997 436.158 3.85159C428.162 3.58165 420.057 4.00301 412.011 3.80549C385.965 3.14711 359.908 2.33728 333.852 1.69206C324.427 1.45504 314.963 1.65255 305.528 1.44187C265.549 0.559634 225.66 -1.12583 185.671 0.625479C176.256 1.04026 166.841 1.46822 157.416 1.82375C124.434 3.05493 91.4515 4.35196 58.4691 5.41196C50.8602 5.70512 43.2364 5.03464 36.0108 3.4368L49.8236 1.12586H19.5696C19.4297 1.50114 19.2799 1.88299 19.1399 2.26485L27.6454 4.86549C17.151 5.52387 17.1511 5.52387 13.463 11.6534L23.2676 14.4648L14.1126 16.6637C14.2125 16.9666 14.3225 17.2761 14.4225 17.5855L24.1873 18.8496C16.3515 19.4224 11.7138 22.4971 7.05627 26.6844L27.5654 29.1336L19.7495 31.2075C29.8441 32.7942 39.4891 30.6874 50.1434 33.6962L27.7552 38.5683C27.7552 38.9633 27.7553 39.3583 27.8252 39.7533L43.4671 40.9779C42.7774 42.8609 42.2977 44.1843 41.4681 46.436L78.3484 44.7439C59.7383 46.7191 41.0682 47.9305 22.3782 49.1288C22.1783 49.1288 21.9584 49.3526 21.8184 49.4975C21.6794 49.6494 21.5972 49.8209 21.5786 49.9978C21.6036 50.1971 21.6639 50.3938 21.7584 50.5838C24.1072 52.3483 30.2439 49.03 30.7536 53.6453C28.3949 54.6 24.7569 55.8311 26.8158 57.9709C28.5948 59.788 32.2129 60.8349 34.5617 61.9871L19.7197 63.8042C19.5698 67.0369 19.4197 70.0655 19.2597 73.4693H9.08522L13.0131 77.6171L-0.0598145 79.5923L20.1394 82.0941C15.8717 84.6158 10.6843 81.8835 7.28613 85.3861C10.1646 86.1169 12.5333 86.8477 15.032 87.3283C20.0293 88.2962 25.1566 89.2047 30.2739 89.9948C39.9887 91.4893 49.6336 93.4645 59.4883 94.1887C76.0095 95.4001 92.6707 96.1639 109.292 96.4272C127.592 96.7103 145.932 96.2099 164.263 96.0388C174.797 95.9334 185.332 95.6372 195.866 95.7227C206.11 95.8083 216.445 96.9868 226.58 96.414C244.29 95.4001 261.891 97.6847 279.711 96.0651C294.194 94.88 309.076 95.5845 323.758 95.6174Z" fill="#F8C525"/>
<path d="M502.173 97L506.77 96.4996L506.171 94.9788L501.703 95.8478C501.863 96.2297 502.023 96.6181 502.173 97Z" fill="#F8C525"/>
<path d="M472.738 95.749H478.425C478.425 95.4396 478.375 95.1302 478.355 94.8141L472.678 95.0248L472.738 95.749Z" fill="#F8C525"/>
</g>
<defs>
<clipPath id="clip0_8_236">
<rect width="620" height="97" fill="white"/>
</clipPath>
</defs>
</svg>
