<svg width="139" height="139" viewBox="0 0 139 139" fill="none" xmlns="http://www.w3.org/2000/svg">
<g clip-path="url(#clip0_8_167)">
<path d="M109.359 64.2892H29.6397C28.4157 64.2892 27.4253 65.2808 27.4253 66.5037V82.3539C27.4253 95.8167 45.9063 106.363 69.4992 106.363C93.0921 106.363 111.573 95.8164 111.573 82.3539V66.5037C111.573 65.2808 110.583 64.2892 109.359 64.2892Z" fill="#5D647F"/>
<path d="M69.5684 64.2892H29.6397C28.4157 64.2892 27.4253 65.2808 27.4253 66.5037V82.3539C27.4253 95.8167 45.9063 106.363 69.4992 106.363C69.5224 106.363 69.5451 106.361 69.5684 106.361V64.2892Z" fill="#5C546A"/>
<path d="M133.633 40.6487L77.3401 16.5212C72.3577 14.3868 66.6357 14.3879 61.6491 16.5268L5.36968 40.6465C2.05664 42.0662 0 45.1866 0 48.7894C0 52.3912 2.05664 55.5082 5.36747 56.9268L61.6576 81.054C64.1467 82.1202 66.8195 82.6531 69.4945 82.6531C72.1739 82.6531 74.8531 82.1189 77.3487 81.0485L133.628 56.9288C136.941 55.5102 139 52.3898 139 48.7869C139 45.1854 136.943 42.0673 133.633 40.6487Z" fill="#527992"/>
<path d="M14.138 95.291C12.914 95.291 11.9236 94.2995 11.9236 93.0766V59.5089C11.9236 57.3484 13.4676 55.5135 15.5956 55.1448L60.2623 47.3761C61.467 47.1685 62.6129 47.974 62.8228 49.1786C63.0326 50.3833 62.226 51.5303 61.0191 51.7401L16.3524 59.5089V93.0764C16.3524 94.2996 15.362 95.291 14.138 95.291Z" fill="#5C546A"/>
<path d="M14.1388 99.7199C16.5848 99.7199 18.5676 97.7371 18.5676 95.2911C18.5676 92.8451 16.5848 90.8622 14.1388 90.8622C11.6928 90.8622 9.70996 92.8451 9.70996 95.2911C9.70996 97.7371 11.6928 99.7199 14.1388 99.7199Z" fill="#FF9600"/>
<path d="M60.6414 46.5739V51.0027C60.6414 53.4485 64.6071 55.4315 69.499 55.4315C74.3909 55.4315 78.3567 53.4485 78.3567 51.0027V46.5739H60.6414Z" fill="#FF9600"/>
<path d="M69.499 51.0027C74.391 51.0027 78.3567 49.0199 78.3567 46.5739C78.3567 44.1279 74.391 42.1451 69.499 42.1451C64.6071 42.1451 60.6414 44.1279 60.6414 46.5739C60.6414 49.0199 64.6071 51.0027 69.499 51.0027Z" fill="#FFD200"/>
<path d="M9.58846 104.13L7.99463 121.663C7.87671 122.96 8.89783 124.078 10.1999 124.078H18.6366C19.9386 124.078 20.9598 122.96 20.8418 121.663L19.248 104.13C19.021 101.632 16.9265 99.7196 14.4184 99.7196H14.4181C11.91 99.7199 9.81571 101.632 9.58846 104.13Z" fill="#FFD200"/>
</g>
<defs>
<clipPath id="clip0_8_167">
<rect width="139" height="139" fill="white"/>
</clipPath>
</defs>
</svg>
