<svg width="98" height="132" viewBox="0 0 98 132" fill="none" xmlns="http://www.w3.org/2000/svg">
<g clip-path="url(#clip0_8_123)">
<path d="M89.394 16.4206H85.719L48.9996 21.7325L12.2802 16.4206H8.07455C3.54007 16.4206 -0.135742 12.7448 -0.135742 8.21029C-0.136008 3.67581 3.54007 0 8.07455 0H89.394C93.9285 0 97.6043 3.67581 97.6043 8.21029C97.6045 12.7448 93.9285 16.4206 89.394 16.4206Z" fill="#B98080"/>
<path d="M89.9251 0H81.9573C86.4918 0 90.1676 3.67581 90.1676 8.21029C90.1676 12.7448 86.4918 16.4206 81.9573 16.4206H89.9251C94.4596 16.4206 98.1354 12.7448 98.1354 8.21029C98.1356 3.67581 94.4596 0 89.9251 0Z" fill="#AE6C6C"/>
<path d="M85.1881 26.7275V16.4206H12.2805V26.7275C12.2805 42.7162 22.5 56.3162 36.7632 61.3561C38.7318 62.0517 40.0481 63.9122 40.0481 65.9997C40.0481 68.0876 38.7318 69.9481 36.7632 70.6434C22.5003 75.6833 12.2805 89.2833 12.2805 105.272V115.579H85.1878V105.272C85.1878 89.2833 74.9683 75.6833 60.7051 70.6434C58.7365 69.9478 57.4203 68.0873 57.4203 65.9997H57.9515C57.9515 63.9119 58.7365 62.0517 60.7051 61.3561C74.9683 56.3165 85.1881 42.7162 85.1881 26.7275Z" fill="#EFEDEF"/>
<path d="M12.2805 16.4206V21.626H72.6499C75.4673 21.626 77.7514 23.9101 77.7514 26.7275C77.7514 42.6665 67.5951 56.2317 53.4016 61.3088C51.6455 61.937 50.3021 63.4362 50.0357 65.2821C49.6939 67.6507 51.0771 69.8689 53.2688 70.6434C67.5317 75.6833 77.7514 89.2835 77.7514 105.272V115.579H85.7193V105.272C85.7193 89.3329 75.563 75.7677 61.3694 70.6907C59.6133 70.0625 58.2699 68.5632 58.0035 66.7174C57.6617 64.3488 59.0449 62.1306 61.2366 61.3561C75.4995 56.3162 85.7193 42.716 85.7193 26.7275V21.6262V16.4206H12.2805Z" fill="#D7D0D6"/>
<path d="M89.394 132H8.07455C3.54007 132 -0.135742 128.324 -0.135742 123.79C-0.135742 119.255 3.54007 115.579 8.07455 115.579H12.2808L49.0001 110.268L85.7195 115.579H89.3945C93.929 115.579 97.6048 119.255 97.6048 123.79C97.6045 128.324 93.9285 132 89.394 132Z" fill="#B98080"/>
<path d="M89.9251 115.579H81.9573C86.4918 115.579 90.1676 119.255 90.1676 123.79C90.1676 128.324 86.4918 132 81.9573 132H89.9251C94.4596 132 98.1354 128.324 98.1354 123.79C98.1356 119.255 94.4596 115.579 89.9251 115.579Z" fill="#AE6C6C"/>
<path d="M66.6818 86.7739H62.8144C58.9254 86.7739 55.0761 83.9605 54.44 80.124L52.8621 70.607C52.059 65.7631 55.7953 61.3563 60.7054 61.3563C70.2335 57.9897 77.9514 50.7995 82.0296 41.6326H15.4389C19.5169 50.7998 27.235 57.9897 36.7632 61.3563C41.6732 61.3563 45.4096 65.7631 44.6064 70.607L43.0285 80.124C42.3924 83.9605 39.0741 86.7739 35.1853 86.7739H30.7868C20.648 86.7739 12.336 94.9316 12.2813 105.07C12.281 105.138 12.2808 105.205 12.2808 105.272V115.579H85.188V105.272C85.188 105.205 85.1878 105.138 85.1875 105.07C85.1325 94.9316 76.8205 86.7739 66.6818 86.7739Z" fill="#FED402"/>
<path d="M85.7186 105.07C85.6637 94.9316 77.3519 86.7739 67.2131 86.7739H62.8144C58.9253 86.7739 55.6072 83.9605 54.9711 80.124L53.3932 70.607C52.5901 65.7631 56.3265 61.3563 61.2365 61.3563C70.7646 57.9897 78.4825 50.7995 82.5607 41.6326H74.5929C70.515 50.7998 62.7968 57.9897 53.2687 61.3563C48.3586 61.3563 44.6223 65.7631 45.4254 70.607L47.0033 80.124C47.6394 83.9605 50.9577 86.7739 54.8466 86.7739H59.2453C69.3841 86.7739 77.6961 94.9316 77.7508 105.07C77.7511 105.138 77.7514 105.205 77.7514 105.272V115.579H85.7192V105.272C85.7192 105.205 85.7189 105.138 85.7186 105.07Z" fill="#FAC600"/>
</g>
<defs>
<clipPath id="clip0_8_123">
<rect width="98" height="132" fill="white"/>
</clipPath>
</defs>
</svg>
