<svg width="122" height="140" viewBox="0 0 122 140" fill="none" xmlns="http://www.w3.org/2000/svg">
<g clip-path="url(#clip0_8_118)">
<path d="M60.9189 4.36332C60.6029 4.37818 60.2939 4.46148 60.0131 4.60731C60.0131 4.60731 34.0344 17.5656 1.63848 21.885C1.11232 21.9577 0.630562 22.2193 0.283085 22.621C-0.0643914 23.0228 -0.253849 23.5371 -0.249941 24.0683V69.9888C-0.249941 98.1201 15.1515 114.807 30.3366 124.087C45.5217 133.367 60.6753 135.601 60.6753 135.601C60.8906 135.633 61.1095 135.633 61.3248 135.601C61.3248 135.601 76.4784 133.367 91.6635 124.087C106.849 114.807 122.25 98.1201 122.25 69.9888V24.0683C122.254 23.5371 122.065 23.0228 121.717 22.621C121.37 22.2193 120.888 21.9577 120.362 21.885C87.9657 17.5656 61.987 4.60731 61.987 4.60731C61.6574 4.43673 61.2898 4.35271 60.9189 4.36332Z" fill="#FF6B6B"/>
<path d="M61 30.6221C39.2797 30.6221 21.6335 48.2681 21.6335 69.9883C21.6335 91.7086 39.2797 109.376 61 109.376C82.7203 109.376 100.366 91.7086 100.366 69.9883C100.366 48.2681 82.7203 30.6221 61 30.6221Z" fill="#DBE9EE"/>
<path d="M54.2195 48.1263C53.6786 48.1795 53.1768 48.432 52.812 48.8348C52.4471 49.2376 52.2452 49.7618 52.2456 50.3053V61.2556H41.3166C40.7365 61.2534 40.1792 61.4818 39.7674 61.8904C39.3556 62.299 39.1229 62.8544 39.1206 63.4345V76.5638C39.1229 77.1439 39.3556 77.6993 39.7674 78.1079C40.1792 78.5165 40.7365 78.7449 41.3166 78.7427H52.2456V89.693C52.2468 89.9806 52.3046 90.2652 52.4158 90.5304C52.5271 90.7957 52.6896 91.0363 52.8939 91.2387C53.0983 91.4411 53.3406 91.6013 53.6069 91.71C53.8732 91.8186 54.1583 91.8736 54.4459 91.872H67.5538C68.134 91.8742 68.6912 91.6458 69.1031 91.2372C69.5149 90.8285 69.7475 90.2732 69.7499 89.693V78.7427H80.6831C81.2632 78.7449 81.8205 78.5165 82.2323 78.1079C82.6442 77.6993 82.8768 77.1439 82.8791 76.5638V63.4345C82.8768 62.8544 82.6442 62.299 82.2323 61.8904C81.8205 61.4818 81.2632 61.2534 80.6831 61.2556H69.7499V50.3053C69.7475 49.7252 69.5149 49.1695 69.1031 48.7609C68.6912 48.3523 68.134 48.1241 67.5538 48.1263H54.4459C54.3705 48.1224 54.2949 48.1224 54.2195 48.1263Z" fill="#FF6B6B"/>
</g>
<defs>
<clipPath id="clip0_8_118">
<rect width="122" height="140" fill="white"/>
</clipPath>
</defs>
</svg>
