<svg width="124" height="124" viewBox="0 0 124 124" fill="none" xmlns="http://www.w3.org/2000/svg">
<g clip-path="url(#clip0_8_201)">
<path d="M100.161 124H60.1829C59.6479 124 59.2141 123.566 59.2141 123.031V45.3089H101.13V123.031C101.13 123.566 100.696 124 100.161 124Z" fill="#FFCEBF"/>
<path d="M59.2139 45.3089V74.6722L87.3737 76.0648C90.8859 76.2385 93.6445 79.1367 93.6445 82.6535V124H100.161C100.696 124 101.129 123.566 101.129 123.031V45.3089H59.2139Z" fill="#FFB09E"/>
<path d="M111.135 25.166V56.5624C111.135 65.2194 104.119 72.2392 95.4668 72.2392H67.8192C57.5083 72.2392 49.1519 63.8753 49.1519 53.562V25.166H111.135Z" fill="#FFCEBF"/>
<path d="M105.121 35.4318C105.121 35.4318 82.5704 34.8241 77.7632 46.3905C72.0135 60.2248 75.4089 80.4758 105.121 68.9091V35.4318Z" fill="#FFB09E"/>
<path d="M72.1701 37.4366H72.6242C76.7784 37.4366 80.1458 34.069 80.1458 29.915V10.5042C80.1458 6.34992 76.7782 2.98254 72.6242 2.98254H72.1701C68.0158 2.98254 64.6484 6.35016 64.6484 10.5042V29.9148C64.6482 34.069 68.0158 37.4366 72.1701 37.4366Z" fill="#FFCEBF"/>
<path d="M72.3972 2.98254C72.1826 2.98254 71.9704 2.99368 71.7602 3.01064C72.3344 4.09273 72.6609 5.32643 72.6609 6.63691V25.5934C72.6609 29.6583 69.5304 32.9896 65.5491 33.3139C66.8501 35.7658 69.4279 37.4364 72.3969 37.4364C76.6764 37.4364 80.1457 33.967 80.1457 29.6876V10.7311C80.146 6.45164 76.6766 2.98254 72.3972 2.98254Z" fill="#FFB09E"/>
<path d="M87.6622 38.2213H88.1163C92.2706 38.2213 95.638 34.8537 95.638 30.6997V7.52162C95.638 3.36762 92.2703 0 88.1161 0H87.662C83.508 0 80.1404 3.36762 80.1404 7.52162V30.6994C80.1404 34.8537 83.508 38.2213 87.6622 38.2213Z" fill="#FFCEBF"/>
<path d="M87.8892 0C87.7443 0 87.6007 0.00460156 87.4578 0.0125937C87.903 0.990062 88.1529 2.0753 88.1529 3.2194V25.9431C88.1529 30.0778 84.9144 33.4553 80.8354 33.6793C82.0553 36.3579 84.7538 38.2213 87.8889 38.2213C92.1684 38.2213 95.6377 34.752 95.6377 30.4725V7.74879C95.6379 3.46934 92.1686 0 87.8892 0V0Z" fill="#FFB09E"/>
<path d="M103.16 38.2213H103.614C107.768 38.2213 111.135 34.8537 111.135 30.6997V7.52162C111.135 3.36762 107.768 0 103.614 0H103.16C99.0053 0 95.6379 3.36762 95.6379 7.52162V30.6994C95.6379 34.8537 99.0056 38.2213 103.16 38.2213Z" fill="#FFCEBF"/>
<path d="M103.387 0C103.102 0 102.821 0.0164688 102.544 0.0465C103.246 1.21239 103.65 2.5776 103.65 4.03751V26.7612C103.65 30.7559 100.627 34.0436 96.7441 34.4635C98.0997 36.7149 100.567 38.2213 103.387 38.2213C107.666 38.2213 111.135 34.752 111.135 30.4725V7.74879C111.135 3.46934 107.666 0 103.387 0V0Z" fill="#FFB09E"/>
<path d="M56.6727 41.5308H57.1268C61.2811 41.5308 64.6485 38.1632 64.6485 34.0092V14.5986C64.6485 10.4443 61.2808 7.07697 57.1268 7.07697H56.6727C52.5185 7.07697 49.1511 10.4446 49.1511 14.5986V34.0092C49.1511 38.1632 52.5187 41.5308 56.6727 41.5308Z" fill="#FFCEBF"/>
<path d="M56.8996 7.07672C56.7778 7.07672 56.6567 7.08035 56.5361 7.08592C56.9391 8.02392 57.1633 9.05685 57.1633 10.1426V29.0991C57.1633 33.2567 53.8887 36.6488 49.7781 36.8387C50.9641 39.5979 53.7056 41.5308 56.8996 41.5308C61.1791 41.5308 64.6484 38.0615 64.6484 33.782V14.8255C64.6484 10.5461 61.1793 7.07672 56.8996 7.07672Z" fill="#FFB09E"/>
<path d="M81.9581 57.597C82.7527 52.9916 86.239 47.1217 86.239 47.1217C90.4143 41.6064 94.9609 38.4584 101.381 38.6771C103.354 38.7444 107.276 37.3877 107.806 35.0327C107.918 34.5357 107.67 34.0269 107.209 33.8116L103.512 32.0848C96.9485 29.0189 95.1062 21.0398 95.9386 17.5191C96.8281 13.7575 98.8107 12.0125 100.24 12.68C100.24 12.68 116.621 20.1108 121.359 22.4605C123 23.2742 124.026 24.9606 123.999 26.7937L123.798 40.4417C123.724 45.415 122.066 50.235 119.065 54.1991L112.068 63.4417C102.488 76.0868 93.9628 73.4087 82.5899 72.2387C82.5902 72.2387 80.7181 64.7837 81.9581 57.597Z" fill="#FFCEBF"/>
<path d="M121.359 22.4605C116.621 20.1108 100.24 12.68 100.24 12.68C99.1302 12.1615 97.6882 13.1045 96.6819 15.3116C101.837 17.6632 110.613 21.6877 113.874 23.305C115.515 24.1187 116.542 25.8051 116.515 27.6382L116.313 41.2862C116.24 46.2595 114.582 51.0795 111.581 55.0437L104.584 64.2863C100.642 69.4892 96.8786 72.0966 93.022 73.2835C99.6824 73.5134 105.638 71.9297 112.069 63.4418L119.066 54.1992C122.067 50.235 123.725 45.415 123.798 40.4417L123.999 26.7937C124.027 24.9608 123 23.2745 121.359 22.4605Z" fill="#FFB09E"/>
<path d="M48.1784 124H10.4836C9.94865 124 9.51489 123.566 9.51489 123.031V89.6544H49.1472V123.031C49.1472 123.566 48.7134 124 48.1784 124Z" fill="#F89580"/>
<path d="M58.6079 70.6088V100.295C58.6079 108.48 51.9739 115.118 43.7928 115.118H17.6514C7.9021 115.118 0.000976562 107.209 0.000976562 97.4579V70.6086H58.6079V70.6088Z" fill="#FFA78F"/>
<path d="M52.9216 80.3154C52.9216 80.3154 31.5989 79.7407 27.0536 90.6772C21.6169 103.758 24.8276 122.906 52.9216 111.969V80.3154Z" fill="#F89580"/>
<path d="M21.7652 82.211H22.1946C26.1224 82.211 29.3066 79.027 29.3066 75.0989V56.7457C29.3066 52.8179 26.1226 49.6337 22.1946 49.6337H21.7652C17.8374 49.6337 14.6531 52.8177 14.6531 56.7457V75.0989C14.6533 79.0267 17.8374 82.211 21.7652 82.211Z" fill="#FFA78F"/>
<path d="M21.98 49.6337C21.7771 49.6337 21.5765 49.6441 21.3777 49.6603C21.9207 50.6835 22.2295 51.8499 22.2295 53.0889V71.013C22.2295 74.8565 19.2694 78.0064 15.5051 78.313C16.7354 80.6312 19.1728 82.211 21.98 82.211C26.0265 82.211 29.3067 78.9308 29.3067 74.8844V56.9603C29.3067 52.9141 26.0262 49.6337 21.98 49.6337Z" fill="#F89580"/>
<path d="M36.4133 82.9531H36.8427C40.7705 82.9531 43.9548 79.7691 43.9548 75.841V53.9257C43.9548 49.9979 40.7708 46.8136 36.8427 46.8136H36.4133C32.4856 46.8136 29.3013 49.9977 29.3013 53.9257V75.841C29.3013 79.7688 32.4856 82.9531 36.4133 82.9531Z" fill="#FFA78F"/>
<path d="M36.6279 46.8136C36.491 46.8136 36.3552 46.818 36.22 46.8255C36.6409 47.7497 36.8773 48.7758 36.8773 49.8577V71.3436C36.8773 75.253 33.8151 78.4467 29.9585 78.6584C31.1118 81.1912 33.6632 82.9529 36.6279 82.9529C40.6743 82.9529 43.9545 79.6727 43.9545 75.6262V54.1403C43.9545 50.0941 40.6743 46.8136 36.6279 46.8136Z" fill="#F89580"/>
<path d="M51.0667 82.9531H51.4961C55.4239 82.9531 58.6081 79.7691 58.6081 75.841V53.9257C58.6081 49.9979 55.4241 46.8136 51.4961 46.8136H51.0667C47.1389 46.8136 43.9546 49.9977 43.9546 53.9257V75.841C43.9546 79.7688 47.1389 82.9531 51.0667 82.9531Z" fill="#FFA78F"/>
<path d="M51.2811 46.8136C51.0118 46.8136 50.7461 46.8291 50.4846 46.8575C51.1484 47.9597 51.5306 49.2508 51.5306 50.631V72.1169C51.5306 75.8941 48.6721 79.0025 45.0005 79.3997C46.2824 81.5285 48.6151 82.9526 51.2811 82.9526C55.3274 82.9526 58.6078 79.6724 58.6078 75.6259V54.14C58.6078 50.0941 55.3276 46.8136 51.2811 46.8136Z" fill="#F89580"/>
<path d="M7.11208 86.0824H7.54148C11.4693 86.0824 14.6536 82.8984 14.6536 78.9703V60.6171C14.6536 56.6893 11.4695 53.505 7.54148 53.505H7.11208C3.18404 53.505 0 56.6891 0 60.6171V78.9703C0 82.8981 3.18404 86.0824 7.11208 86.0824Z" fill="#FFA78F"/>
<path d="M7.3268 53.505C7.21152 53.505 7.09721 53.5084 6.98314 53.5138C7.36434 54.4006 7.57625 55.3774 7.57625 56.404V74.3281C7.57625 78.2593 4.48013 81.4665 0.593262 81.646C1.71459 84.2551 4.30697 86.0824 7.3268 86.0824C11.3733 86.0824 14.6535 82.8022 14.6535 78.7557V60.8317C14.6535 56.7852 11.3733 53.505 7.3268 53.505Z" fill="#F89580"/>
<path d="M31.0199 101.273C31.7712 96.9188 35.0676 91.3686 35.0676 91.3686C39.0155 86.1538 43.3143 83.1771 49.385 83.3842C51.2498 83.4476 54.9584 82.165 55.4598 79.9381C55.5656 79.4682 55.3314 78.9873 54.8952 78.7836L51.3997 77.151C45.1934 74.2523 43.4514 66.7076 44.2387 63.3788C45.0798 59.822 46.9544 58.172 48.306 58.8034C48.306 58.8034 63.7944 65.8292 68.2744 68.051C69.8261 68.8205 70.7965 70.415 70.7709 72.1481L70.5803 85.0526C70.5107 89.7549 68.9431 94.3124 66.1056 98.0605L59.4898 106.8C50.4315 118.756 42.3705 116.224 31.6171 115.118C31.6176 115.117 29.8475 108.069 31.0199 101.273Z" fill="#FFA78F"/>
<path d="M68.2749 68.0508C63.7949 65.829 48.3065 58.8031 48.3065 58.8031C47.2566 58.3127 45.8934 59.2044 44.9418 61.2914C49.8158 63.5149 58.1142 67.3201 61.1977 68.8493C62.7494 69.6187 63.7198 71.2133 63.6942 72.9466L63.5036 85.8511C63.434 90.5534 61.8664 95.1109 59.0289 98.859L52.4131 107.598C48.686 112.518 45.1276 114.983 41.4812 116.105C47.7788 116.323 53.4099 114.825 59.4903 106.8L66.1061 98.0607C68.9436 94.3126 70.5112 89.7552 70.5808 85.0529L70.7714 72.1484C70.797 70.4148 69.8266 68.8202 68.2749 68.0508Z" fill="#F89580"/>
</g>
<defs>
<clipPath id="clip0_8_201">
<rect width="124" height="124" fill="white"/>
</clipPath>
</defs>
</svg>
