<svg width="211" height="45" viewBox="0 0 211 45" fill="none" xmlns="http://www.w3.org/2000/svg">
<path d="M41.9313 29.0466H42.453C41.9147 30.8849 40.5743 31.803 38.4318 31.8009C37.7863 31.8159 37.1446 31.6989 36.546 31.457C35.9474 31.2151 35.4046 30.8535 34.9508 30.3943C34.0068 29.4565 33.5348 28.2144 33.5348 26.668C33.5072 25.9552 33.6289 25.2445 33.892 24.5814C34.1551 23.9183 34.5538 23.3175 35.0626 22.8176C35.5338 22.3421 36.0957 21.9663 36.715 21.7124C37.3344 21.4584 37.9984 21.3316 38.6677 21.3395C39.472 21.3295 40.2664 21.5172 40.9811 21.886C41.6829 22.2524 42.0338 22.6996 42.0338 23.2275C42.0323 23.4293 41.9634 23.6249 41.8382 23.7833C41.7731 23.8695 41.6878 23.9385 41.5897 23.984C41.4917 24.0294 41.384 24.0501 41.2761 24.0441C40.7565 24.0441 40.4377 23.7408 40.3197 23.1343C40.2724 22.778 40.12 22.444 39.8819 22.1748C39.6769 21.9947 39.2795 21.9046 38.6864 21.9046C37.6306 21.9046 36.8367 22.271 36.3047 23.0039C35.7727 23.7367 35.5066 24.8401 35.5066 26.314C35.5066 27.8356 35.7923 29.0259 36.3637 29.885C36.935 30.7441 37.8004 31.1737 38.9596 31.1737C40.5143 31.1737 41.5049 30.4646 41.9313 29.0466Z" fill="#231F20"/>
<path d="M49.7999 23.3236C50.2125 22.7148 50.7556 22.2056 51.3898 21.8331C51.9798 21.5007 52.647 21.3293 53.3243 21.3363C54.0185 21.3096 54.7059 21.482 55.3054 21.8331C55.7807 22.1064 56.1429 22.5402 56.327 23.0566C56.5175 23.828 56.597 24.6227 56.563 25.4165V28.0963C56.5449 28.7874 56.5667 29.4789 56.6282 30.1675C56.6446 30.2814 56.6882 30.3896 56.7552 30.4831C56.8222 30.5766 56.9107 30.6526 57.0133 30.7047C57.3907 30.8463 57.7943 30.9046 58.1964 30.8755V31.422H53.1939V30.8755H53.4175C53.995 30.8755 54.3645 30.7947 54.5353 30.6271C54.7052 30.4758 54.8153 30.2687 54.8458 30.0433C54.8728 29.8197 54.8873 29.1707 54.8893 28.0963V25.1774C54.9064 24.5789 54.8585 23.9802 54.7465 23.392C54.6495 23.0017 54.4117 22.6611 54.0789 22.4355C53.6903 22.1724 53.2281 22.0397 52.7592 22.0567C52.1637 22.0509 51.5826 22.2395 51.1041 22.5939C50.5565 23.0263 50.1156 23.5787 49.8154 24.2086V28.0963C49.8154 29.1863 49.8309 29.857 49.8682 30.1085C49.8807 30.2253 49.9196 30.3378 49.982 30.4373C50.0444 30.5369 50.1287 30.6209 50.2284 30.683C50.5807 30.8415 50.9675 30.9077 51.3525 30.8755V31.422H46.4183V30.8755H46.6667C47.2319 30.8755 47.5983 30.7948 47.7722 30.6333C47.9365 30.4823 48.0412 30.2774 48.0672 30.0557C48.0962 29.8301 48.1096 29.1769 48.1076 28.0963V18.4392C48.1076 17.461 48.0144 16.84 47.8312 16.576C47.648 16.3121 47.2102 16.1848 46.4991 16.1848V15.6414C47.5389 15.6715 48.5749 15.5029 49.5515 15.1445H49.7999V23.3236Z" fill="#231F20"/>
<path d="M72.4834 29.6489H72.9213C72.8488 31.0007 72.1864 31.6756 70.9339 31.6735C70.4713 31.6988 70.0167 31.5454 69.6639 31.245C69.318 30.9075 69.0987 30.4613 69.0429 29.9812C68.3631 30.4752 67.6348 30.8986 66.8692 31.245C66.323 31.5057 65.729 31.6515 65.1241 31.6735C64.511 31.6875 63.9123 31.4864 63.4318 31.1053C63.2035 30.9284 63.0203 30.7001 62.8973 30.4388C62.7742 30.1776 62.7148 29.891 62.7238 29.6024C62.7238 28.7919 63.1182 28.0808 63.91 27.4753C64.9245 26.7467 66.0274 26.1499 67.1922 25.6991L69.0274 24.9539V24.4819C69.0459 23.9939 69.0021 23.5055 68.8969 23.0286C68.7767 22.688 68.5374 22.4024 68.2231 22.2244C67.7911 21.9679 67.2934 21.8437 66.7916 21.8673C65.6096 21.8673 64.9513 22.2617 64.8167 23.0504C64.6894 23.8546 64.3602 24.2583 63.823 24.2583C63.3417 24.2583 63.1026 24.0285 63.1026 23.572C63.1026 23.1156 63.4132 22.6405 64.059 22.1219C64.7049 21.6034 65.6924 21.3487 67.04 21.3487C67.8439 21.3051 68.6455 21.4676 69.3689 21.8207C69.8393 22.0535 70.2224 22.4313 70.462 22.8982C70.6718 23.4894 70.7626 24.1163 70.729 24.7427V28.6553C70.6963 29.2469 70.7443 29.8403 70.8718 30.419C70.915 30.5455 71.0002 30.6533 71.1132 30.7245C71.2262 30.7957 71.3602 30.826 71.4929 30.8103C72.0332 30.7979 72.3592 30.4097 72.4834 29.6489ZM69.0677 25.5097L67.7791 26.0314C65.742 26.8594 64.7246 27.8997 64.7267 29.1521C64.7059 29.587 64.8451 30.0145 65.1179 30.3538C65.2426 30.4997 65.3987 30.6155 65.5746 30.6924C65.7505 30.7693 65.9415 30.8054 66.1333 30.7979C66.585 30.7748 67.0257 30.6495 67.422 30.4314C68.0078 30.1229 68.5594 29.7534 69.0677 29.3291V25.5097Z" fill="#231F20"/>
<path d="M80.3023 23.8081C80.5685 23.1116 81.0206 22.5016 81.6096 22.0443C82.1016 21.6155 82.7244 21.3659 83.3765 21.3364C83.6061 21.3232 83.8359 21.3597 84.0503 21.4433C84.2646 21.5268 84.4584 21.6556 84.6185 21.8208C84.8895 22.0824 85.0495 22.4381 85.0657 22.8144C85.0701 23.0338 84.9875 23.2459 84.8359 23.4044C84.7659 23.4842 84.6794 23.5478 84.5823 23.5907C84.4852 23.6336 84.38 23.6548 84.2738 23.6528C83.8795 23.6528 83.5814 23.361 83.3765 22.7772C83.2336 22.3828 83.0193 22.1872 82.7368 22.1872C82.3993 22.1872 81.9936 22.418 81.5195 22.8796C81.0919 23.2672 80.7766 23.7628 80.6066 24.3143C80.4553 24.9854 80.3885 25.6729 80.4079 26.3606V28.0964C80.4079 29.1315 80.4213 29.7825 80.4482 30.0496C80.4549 30.1717 80.4888 30.2909 80.5474 30.3983C80.6059 30.5057 80.6877 30.5988 80.7867 30.6706C81.1096 30.8419 81.4754 30.9153 81.8394 30.8818H82.1685V31.4283H77.0015V30.8818H77.2499C77.5985 30.9095 77.9481 30.843 78.2622 30.6892C78.3593 30.6294 78.4419 30.5488 78.5042 30.4532C78.5665 30.3577 78.6068 30.2495 78.6224 30.1365C78.6789 29.4601 78.6986 28.7811 78.6814 28.1026V25.3731C78.6814 24.3381 78.6679 23.6849 78.641 23.4137C78.6337 23.2917 78.5995 23.1728 78.541 23.0655C78.4825 22.9581 78.4011 22.865 78.3025 22.7927C77.981 22.6173 77.6146 22.5417 77.2499 22.5753H77.0015V22.0412C77.9903 21.8977 78.9642 21.6649 79.911 21.3457C80.1733 22.14 80.3054 22.9716 80.3023 23.8081V23.8081Z" fill="#231F20"/>
<path d="M92.1084 21.3364V28.0964C92.1084 29.1315 92.1239 29.7825 92.155 30.0496C92.1635 30.1717 92.1985 30.2904 92.2575 30.3977C92.3164 30.5049 92.398 30.598 92.4966 30.6706C92.8197 30.8411 93.1853 30.9144 93.5492 30.8818H93.7976V31.4283H88.584V30.8818H88.9846C89.5466 30.8818 89.9161 30.801 90.0807 30.6396C90.2508 30.491 90.3611 30.2858 90.3912 30.062C90.4181 29.8364 90.4316 29.1832 90.4316 28.1026V25.1713C90.4316 24.0348 90.3788 23.3413 90.2732 23.0908C90.2393 22.9859 90.1836 22.8893 90.1097 22.8075C90.0359 22.7256 89.9456 22.6603 89.8447 22.6157C89.5406 22.5384 89.2266 22.507 88.9131 22.5226H88.6026V21.9792C89.7107 21.8978 90.8057 21.6894 91.8662 21.3581L92.1084 21.3364ZM89.8261 16.3929C89.8237 16.2302 89.8544 16.0686 89.9163 15.9181C89.9782 15.7676 90.0701 15.6312 90.1863 15.5172C90.2979 15.3992 90.4328 15.3056 90.5824 15.2426C90.7321 15.1795 90.8933 15.1482 91.0557 15.1508C91.2173 15.1479 91.3776 15.1791 91.5263 15.2422C91.675 15.3053 91.8088 15.399 91.919 15.5172C92.1458 15.7542 92.2724 16.0695 92.2724 16.3976C92.2724 16.7256 92.1458 17.0409 91.919 17.2779C91.8088 17.3961 91.675 17.4898 91.5263 17.5529C91.3776 17.616 91.2173 17.6472 91.0557 17.6443C90.8933 17.6469 90.7321 17.6156 90.5824 17.5526C90.4328 17.4895 90.2979 17.3959 90.1863 17.2779C90.0692 17.1626 89.9769 17.0247 89.915 16.8725C89.853 16.7204 89.8228 16.5572 89.8261 16.3929Z" fill="#231F20"/>
<path d="M104.017 22.2711H101.095V28.1245C101.073 28.7314 101.112 29.3389 101.213 29.9379C101.284 30.241 101.463 30.5081 101.716 30.6894C101.951 30.8724 102.24 30.9728 102.539 30.975C103.104 30.975 103.596 30.6511 104.017 30.0031L104.396 30.2298C104.17 30.7283 103.79 31.141 103.312 31.4067C102.871 31.6601 102.373 31.7959 101.865 31.801C101.323 31.8102 100.794 31.6325 100.368 31.298C99.9696 31.0128 99.6847 30.596 99.5639 30.1211C99.4309 29.3408 99.3768 28.5491 99.4024 27.758V22.2711H97.9957V21.7246C98.3254 21.7129 98.6493 21.6348 98.9481 21.495C99.2469 21.3552 99.5144 21.1566 99.7347 20.9111C100.287 20.2916 100.631 19.5136 100.716 18.6877H101.095V21.7246H104.017V22.2711Z" fill="#231F20"/>
<path d="M113.801 29.5775L116.046 24.1962C116.243 23.7729 116.406 23.3347 116.534 22.8858C116.534 22.4904 116.096 22.2834 115.22 22.2648V21.7183H118.636V22.2648C118.209 22.2478 117.792 22.3983 117.475 22.684C117.086 23.199 116.779 23.7708 116.565 24.3794L112.249 34.8005C111.987 35.5255 111.62 36.2085 111.162 36.8282C111.038 36.9882 110.881 37.1193 110.701 37.2121C110.521 37.3049 110.324 37.3572 110.122 37.3654C109.609 37.3654 109.351 37.1325 109.351 36.6667C109.351 36.1326 109.765 35.6792 110.594 35.3066C110.94 35.1747 111.264 34.9915 111.556 34.7632C111.771 34.5271 111.935 34.2491 112.037 33.9465L112.969 31.6425L109.296 23.8422C109.106 23.3647 108.834 22.9243 108.491 22.5411C108.169 22.3308 107.785 22.2356 107.401 22.271V21.7245H111.848V22.271C111.069 22.2927 110.677 22.4542 110.677 22.7554C110.785 23.1586 110.94 23.5474 111.14 23.9136L113.801 29.5775Z" fill="#231F20"/>
<path d="M123.511 22.3299C123.509 21.996 123.639 21.6748 123.871 21.4356C123.987 21.311 124.127 21.2123 124.284 21.1459C124.44 21.0795 124.608 21.047 124.778 21.0506C124.946 21.0501 125.113 21.083 125.268 21.1472C125.423 21.2113 125.564 21.3056 125.683 21.4245C125.801 21.5435 125.895 21.6847 125.959 21.8401C126.023 21.9954 126.055 22.1619 126.054 22.3299C126.056 22.4965 126.023 22.6617 125.958 22.815C125.893 22.9684 125.797 23.1066 125.676 23.2211C125.559 23.3403 125.419 23.4348 125.265 23.4988C125.111 23.5628 124.945 23.5951 124.778 23.5937C124.61 23.5975 124.443 23.5658 124.287 23.5005C124.132 23.4352 123.993 23.3379 123.878 23.2149C123.761 23.099 123.669 22.961 123.606 22.8091C123.543 22.6572 123.511 22.4943 123.511 22.3299ZM123.511 30.5245C123.513 30.189 123.647 29.8677 123.884 29.6305C124.121 29.3932 124.443 29.2592 124.778 29.2576C124.946 29.2554 125.113 29.2872 125.268 29.3513C125.423 29.4153 125.564 29.5102 125.682 29.6302C125.801 29.7478 125.895 29.8878 125.96 30.0421C126.024 30.1964 126.057 30.3619 126.057 30.5292C126.057 30.6964 126.024 30.862 125.96 31.0163C125.895 31.1706 125.801 31.3106 125.682 31.4281C125.565 31.5474 125.425 31.6418 125.271 31.7058C125.117 31.7699 124.951 31.8021 124.784 31.8008C124.616 31.804 124.449 31.7716 124.293 31.7058C124.138 31.64 123.999 31.5422 123.884 31.4188C123.765 31.3023 123.671 31.1631 123.607 31.0095C123.543 30.8559 123.51 30.691 123.511 30.5245Z" fill="#231F20"/>
<path d="M151.663 31.7917H151.129L148.244 24.1032L145.316 31.7917H144.794L141.838 24.1032C141.501 23.2275 141.248 22.7028 141.081 22.5289C140.916 22.3581 140.584 22.2711 140.087 22.2711V21.7246H144.512V22.2711C144.167 22.2475 143.821 22.2929 143.493 22.4046C143.407 22.4471 143.335 22.5143 143.287 22.5979C143.239 22.6814 143.216 22.7774 143.223 22.8735C143.322 23.3506 143.476 23.8144 143.683 24.2554L145.627 29.4473L148.632 21.7246H149.092L152.002 29.4473L154.132 23.9479C154.285 23.6111 154.4 23.2579 154.473 22.8953C154.473 22.5102 154.076 22.3032 153.281 22.2742V21.7277H156.427V22.2742C156.114 22.2644 155.805 22.3396 155.532 22.4916C155.244 22.7346 155.036 23.0595 154.936 23.4232L154.675 24.1094L151.663 31.7917Z" fill="#231F20"/>
<path d="M170.207 29.6489H170.645C170.573 31.0007 169.91 31.6756 168.658 31.6735C168.195 31.6988 167.741 31.5454 167.388 31.245C167.042 30.9075 166.823 30.4613 166.767 29.9812C166.087 30.4752 165.359 30.8986 164.593 31.245C164.047 31.5057 163.453 31.6515 162.848 31.6735C162.235 31.688 161.636 31.4869 161.156 31.1053C160.927 30.9284 160.744 30.7001 160.621 30.4388C160.498 30.1776 160.439 29.891 160.448 29.6024C160.448 28.7919 160.842 28.0808 161.634 27.4753C162.648 26.7467 163.751 26.1499 164.916 25.6991L166.751 24.9539V24.4819C166.77 23.9939 166.726 23.5055 166.621 23.0286C166.501 22.688 166.261 22.4024 165.947 22.2244C165.515 21.9679 165.017 21.8437 164.515 21.8673C163.333 21.8673 162.675 22.2617 162.541 23.0504C162.406 23.8391 162.075 24.2417 161.547 24.2583C161.066 24.2583 160.827 24.0285 160.827 23.572C160.827 23.1156 161.137 22.6405 161.783 22.1219C162.429 21.6034 163.416 21.3487 164.764 21.3487C165.568 21.3051 166.369 21.4676 167.093 21.8207C167.563 22.0535 167.946 22.4313 168.186 22.8982C168.396 23.4894 168.486 24.1163 168.453 24.7427V28.6553C168.42 29.2469 168.468 29.8403 168.596 30.419C168.639 30.5455 168.724 30.6533 168.837 30.7245C168.95 30.7957 169.084 30.826 169.217 30.8103C169.751 30.802 170.081 30.4149 170.207 29.6489ZM166.792 25.5097L165.5 26.019C163.465 26.847 162.448 27.8872 162.451 29.1397C162.43 29.5746 162.569 30.0021 162.842 30.3414C162.965 30.4896 163.121 30.6077 163.297 30.6868C163.473 30.7659 163.664 30.8039 163.857 30.7979C164.309 30.7748 164.75 30.6495 165.146 30.4314C165.732 30.1229 166.283 29.7534 166.792 29.3291V25.5097Z" fill="#231F20"/>
<path d="M180.405 22.2711H177.483V28.1245C177.461 28.7314 177.5 29.3389 177.601 29.9379C177.672 30.241 177.851 30.5081 178.104 30.6894C178.339 30.8724 178.628 30.9728 178.927 30.975C179.492 30.975 179.985 30.6511 180.405 30.0031L180.784 30.2298C180.558 30.7283 180.178 31.141 179.7 31.4067C179.259 31.6601 178.761 31.7959 178.253 31.801C177.711 31.8102 177.183 31.6325 176.756 31.298C176.358 31.0128 176.073 30.596 175.952 30.1211C175.819 29.3408 175.765 28.5491 175.79 27.758V22.2711H174.384V21.7246C174.713 21.7129 175.037 21.6348 175.336 21.495C175.635 21.3552 175.902 21.1566 176.123 20.9111C176.676 20.2916 177.019 19.5136 177.104 18.6877H177.483V21.7246H180.405V22.2711Z" fill="#231F20"/>
<path d="M193.592 24.9911H186.839C186.808 25.4569 186.792 25.8046 186.792 26.0344C186.792 27.7361 187.058 29.0144 187.59 29.8694C187.833 30.2801 188.182 30.6168 188.602 30.8434C189.022 31.0699 189.495 31.1776 189.972 31.1549C190.618 31.1895 191.258 31.0224 191.805 30.677C192.352 30.3315 192.778 29.8247 193.024 29.2266H193.592C193.347 30.0217 192.81 30.6949 192.089 31.1114C191.372 31.5461 190.55 31.7808 189.711 31.7912C188.872 31.8015 188.045 31.5872 187.317 31.1704C186.579 30.7493 185.962 30.1451 185.525 29.416C185.041 28.5794 184.8 27.6245 184.83 26.6586C184.781 25.2629 185.262 23.9006 186.177 22.8454C186.591 22.3587 187.108 21.97 187.691 21.7074C188.274 21.4448 188.907 21.3148 189.546 21.3269C190.815 21.3269 191.798 21.713 192.493 22.4852C193.145 23.1639 193.534 24.0519 193.592 24.9911V24.9911ZM191.521 24.5191C191.545 24.3587 191.557 24.1968 191.558 24.0347C191.578 23.75 191.538 23.4642 191.44 23.1961C191.342 22.928 191.189 22.6835 190.99 22.4785C190.792 22.2734 190.552 22.1125 190.288 22.0061C190.023 21.8998 189.738 21.8503 189.453 21.861C188.019 21.861 187.163 22.7522 186.885 24.5346L191.521 24.5191Z" fill="#231F20"/>
<path d="M201.647 23.8082C201.912 23.1108 202.364 22.5003 202.955 22.0444C203.447 21.6155 204.069 21.366 204.721 21.3364C204.951 21.3224 205.181 21.3585 205.396 21.4422C205.61 21.5258 205.804 21.655 205.964 21.8208C206.236 22.0814 206.398 22.4375 206.414 22.8145C206.417 23.0335 206.334 23.2451 206.184 23.4045C206.114 23.4841 206.027 23.5476 205.93 23.5905C205.833 23.6334 205.728 23.6547 205.622 23.6529C205.228 23.6529 204.926 23.361 204.721 22.7772C204.582 22.3829 204.367 22.1873 204.1 22.1873C203.763 22.1873 203.356 22.4181 202.88 22.8797C202.453 23.2675 202.139 23.763 201.97 24.3143C201.818 24.9853 201.75 25.6728 201.768 26.3607V28.0965C201.768 29.1315 201.783 29.7826 201.812 30.0496C201.819 30.1715 201.852 30.2903 201.91 30.3976C201.968 30.505 202.049 30.5982 202.147 30.6707C202.47 30.8411 202.836 30.9144 203.2 30.8818H203.532V31.4283H198.359V30.8818H198.607C198.956 30.9096 199.306 30.8431 199.62 30.6893C199.716 30.629 199.799 30.5482 199.861 30.4528C199.923 30.3573 199.964 30.2494 199.98 30.1366C200.036 29.4602 200.056 28.7812 200.039 28.1027V25.3732C200.039 24.3381 200.025 23.685 199.998 23.4138C199.991 23.2918 199.957 23.1729 199.898 23.0656C199.84 22.9582 199.759 22.8651 199.66 22.7928C199.338 22.6174 198.972 22.5418 198.607 22.5754H198.359V22.0413C199.348 21.8978 200.322 21.665 201.268 21.3457C201.525 22.1412 201.653 22.9724 201.647 23.8082V23.8082Z" fill="#231F20"/>
<path d="M22.6395 10.4727C22.354 9.97153 22.031 9.38963 21.7534 8.88847C21.6008 8.60984 21.5968 8.40209 21.9129 8.26818C22.2929 8.10769 22.3648 7.8645 22.1511 7.51398C21.9542 7.18611 21.712 7.06206 21.3704 7.31707C21.1035 7.51398 20.8899 7.48937 20.6674 7.21861C20.2735 6.74206 19.7359 6.55401 19.1314 6.56779C18.4146 6.58354 17.6644 6.38072 17.0195 6.91437C16.9043 7.01283 16.6748 6.98132 16.4976 6.98132C14.6702 6.98132 12.8418 7.00495 11.0144 6.96754C9.83292 6.94391 8.65141 6.80508 7.47482 6.77062C7.16861 6.76274 6.81809 6.90944 6.56013 7.08962C6.30217 7.26981 6.1279 7.6026 5.89258 7.84284C5.60311 8.13822 5.28705 8.41095 4.98183 8.69353L4.76227 8.57636C4.80165 8.19729 4.84005 7.81921 4.8942 7.29639L4.13705 7.91274C3.9805 7.64592 3.8525 7.32199 3.63294 7.08667C3.47344 6.91634 3.12095 6.70859 2.9772 6.77652C2.16045 7.16956 1.3648 7.60501 0.593506 8.08111C0.472401 8.15495 0.396587 8.47495 0.449755 8.63445C0.657504 9.27936 0.923344 9.90556 1.19706 10.6164C-0.115401 11.0634 0.00275046 12.1307 0.00275046 13.2187V36.1075C0.00275046 37.7528 0.691965 38.4193 2.36577 38.4243C8.52538 38.4426 14.685 38.4426 20.8446 38.4243C21.9946 38.4243 22.9762 37.6366 22.9762 36.652L23.0747 12.6979C23.0757 11.8856 23.0589 11.2082 22.6395 10.4727ZM8.74789 9.57769C8.74789 9.36879 8.83088 9.16844 8.9786 9.02072C9.12632 8.873 9.32666 8.79002 9.53557 8.79002H15.7818C15.9907 8.79002 16.1911 8.873 16.3388 9.02072C16.4865 9.16844 16.5695 9.36879 16.5695 9.57769V9.83467C16.5695 10.0436 16.4865 10.2439 16.3388 10.3916C16.1911 10.5394 15.9907 10.6223 15.7818 10.6223H9.53557C9.32666 10.6223 9.12632 10.5394 8.9786 10.3916C8.83088 10.2439 8.74789 10.0436 8.74789 9.83467V9.57769ZM19.0861 33.2296C18.9851 33.2875 18.8737 33.325 18.7583 33.3399C18.6428 33.3548 18.5255 33.3468 18.4131 33.3164C18.3008 33.2859 18.1955 33.2336 18.1033 33.1625C18.0112 33.0913 17.9339 33.0027 17.876 32.9017L14.8238 27.5721H8.24871L5.19647 32.9017C5.07634 33.099 4.88394 33.2415 4.66024 33.299C4.43655 33.3565 4.19924 33.3244 3.99887 33.2095C3.79849 33.0947 3.6509 32.9061 3.58751 32.684C3.52413 32.4619 3.54997 32.2238 3.65952 32.0205L6.64087 26.8199V21.4017L3.73829 16.3389C3.68011 16.238 3.64237 16.1266 3.62723 16.0111C3.6121 15.8956 3.61986 15.7782 3.65008 15.6657C3.68029 15.5532 3.73237 15.4478 3.80334 15.3554C3.87431 15.263 3.96278 15.1855 4.0637 15.1273C4.16462 15.0692 4.27601 15.0314 4.39151 15.0163C4.50701 15.0011 4.62436 15.0089 4.73686 15.0391C4.84937 15.0693 4.95481 15.1214 5.04719 15.1924C5.13956 15.2634 5.21706 15.3518 5.27524 15.4527L8.04096 20.2772H15.0414L17.8061 15.4527C17.8643 15.3518 17.9418 15.2632 18.0342 15.1922C18.1266 15.1212 18.2321 15.069 18.3447 15.0388C18.4572 15.0085 18.5746 15.0007 18.6902 15.0158C18.8057 15.0309 18.9172 15.0687 19.0182 15.1268C19.1192 15.185 19.2077 15.2625 19.2787 15.3549C19.3497 15.4473 19.4019 15.5528 19.4321 15.6654C19.4624 15.7779 19.4702 15.8953 19.4551 16.0109C19.44 16.1264 19.4023 16.2379 19.3441 16.3389L16.4366 21.4017V26.8169L19.4159 32.0224C19.533 32.2259 19.5645 32.4675 19.5036 32.6942C19.4426 32.9209 19.2943 33.1141 19.091 33.2315L19.0861 33.2296Z" fill="#EFD21D"/>
<path d="M13.7791 22.0564H9.29629C8.80689 22.0564 8.41016 22.4531 8.41016 22.9425V24.9166C8.41016 25.406 8.80689 25.8028 9.29629 25.8028H13.7791C14.2685 25.8028 14.6653 25.406 14.6653 24.9166V22.9425C14.6653 22.4531 14.2685 22.0564 13.7791 22.0564Z" fill="#EFD21D"/>
</svg>
