<svg width="131" height="131" viewBox="0 0 131 131" fill="none" xmlns="http://www.w3.org/2000/svg">
<path d="M47.0879 10.6795L46.9912 10.7119C46.7131 12.2389 46.1178 13.6211 44.4847 14.8484L44.5171 14.9451C45.1511 14.6435 45.8227 14.1859 46.2523 13.7554L48.8188 21.4296C49.2178 22.6226 48.8851 23.2358 47.7888 23.6024L47.8211 23.6992L52.5611 22.114L52.5287 22.0173C51.4324 22.3839 50.8945 22.0619 50.4955 20.8688L47.0879 10.6795Z" fill="black"/>
<path d="M58.5448 20.9901C61.363 20.6474 62.7514 17.8413 62.2918 14.0611C61.8239 10.2135 59.8705 7.95073 57.0354 8.29548C54.2171 8.63818 52.8456 11.4422 53.3052 15.2224C53.7731 19.0701 55.7265 21.3328 58.5448 20.9901ZM58.5667 20.7477C56.6935 20.9755 55.6057 18.3677 55.1912 14.9588C54.7644 11.4487 55.1909 8.75952 57.0303 8.53584C58.8867 8.31012 59.9913 10.9158 60.4058 14.3247C60.8326 17.8349 60.3893 20.5261 58.5667 20.7477Z" fill="black"/>
<path d="M69.4925 20.682C72.3097 21.0334 74.3376 18.6481 74.8089 14.8694C75.2887 11.0232 73.9427 8.35406 71.1087 8.00054C68.2915 7.64912 66.2805 10.0366 65.8092 13.8153C65.3294 17.6615 66.6754 20.3306 69.4925 20.682ZM69.5726 20.4522C67.7001 20.2186 67.2777 17.4248 67.7027 14.0172C68.1404 10.5084 69.2067 8.00313 71.0455 8.2325C72.9011 8.46397 73.3404 11.2598 72.9153 14.6674C72.4777 18.1762 71.3945 20.6794 69.5726 20.4522Z" fill="black"/>
<path d="M80.7455 16.0675C82.2774 16.6777 83.7411 15.9433 84.408 14.2693C85.0812 12.5794 84.5362 11.0996 83.0042 10.4894C81.4723 9.87908 80.0023 10.6293 79.3417 12.2876C78.6622 13.9932 79.2136 15.4572 80.7455 16.0675ZM77.644 21.7857L89.1731 13.0567L88.8415 12.9246L77.3124 21.6535L77.644 21.7857ZM80.8525 15.8905C79.8734 15.5005 79.8431 14.1525 80.4282 12.6838C81.0196 11.1993 81.9338 10.2825 82.8972 10.6663C83.8763 11.0564 83.9066 12.4043 83.3341 13.8414C82.7301 15.3576 81.8159 16.2743 80.8525 15.8905ZM83.4812 24.2209C85.0131 24.8311 86.4832 24.0809 87.1438 22.4227C87.8233 20.717 87.2719 19.253 85.74 18.6428C84.2081 18.0325 82.7444 18.7669 82.0775 20.441C81.4043 22.1308 81.9493 23.6106 83.4812 24.2209ZM83.5883 24.0439C82.6092 23.6539 82.5789 22.3059 83.1514 20.8688C83.7554 19.3527 84.6696 18.4359 85.6329 18.8197C86.6121 19.2098 86.6424 20.5577 86.0573 22.0264C85.4659 23.511 84.5517 24.4277 83.5883 24.0439Z" fill="black"/>
<path d="M102.352 31.5478L102.606 31.2734L94.8721 24.1126L94.618 24.387L102.352 31.5478Z" fill="black"/>
<path d="M113.688 34.05L113.598 34.0975C114.136 35.1204 113.416 35.5765 112.302 36.1626L105.263 39.8692C104.15 40.4553 103.366 40.7911 102.827 39.7682L102.737 39.8157L104.764 43.6666L104.855 43.6191C104.316 42.5962 105.037 42.14 106.15 41.5539L109.474 39.8036L110.195 41.1725C110.931 42.5714 110.625 43.1938 109.67 44.0807L109.718 44.171L113.057 42.4127L113.01 42.3225C111.738 42.6077 111.172 42.4447 110.435 41.0457L109.715 39.6769L114.904 36.9445L115.744 38.539C116.607 40.1786 116.532 40.9482 115.208 42.7022L115.255 42.7924L117.529 41.3455L113.688 34.05Z" fill="black"/>
<path d="M108.484 53.34C109.151 55.8717 110.804 56.8074 113.631 56.0625L118.53 54.7719C120.075 54.3647 121.598 54.1393 121.893 55.2572L121.991 55.2312L121.212 52.2722L121.113 52.2982C121.407 53.416 119.997 54.0688 118.452 54.476L113.553 55.7666C110.923 56.4595 109.526 55.5618 109.041 53.7206C108.526 51.7644 109.448 50.66 112.062 49.9714L117.914 48.4295C119.13 48.1091 119.97 47.9583 120.264 49.0761L120.363 49.0501L119.254 44.8417L119.155 44.8677C119.45 45.9856 118.645 46.2679 117.429 46.5884L111.478 48.1562C108.65 48.9011 107.786 50.6933 108.484 53.34Z" fill="black"/>
<path d="M122.597 65.9572C122.608 67.2492 121.318 67.5325 119.482 67.5486L113.72 67.5992L122.66 61.5705L122.633 58.5106L122.531 58.5115C122.403 59.4307 121.898 60.0131 120.674 60.0239L113.467 60.0871C111.699 60.1026 110.37 59.7742 110.36 58.6183L110.258 58.6192L110.287 61.9851L110.389 61.9842C110.379 60.7602 111.701 60.4086 113.469 60.3931L121.17 60.3255L110.135 67.8346L110.135 67.9366L119.485 67.8546C121.321 67.8385 122.614 67.9972 122.625 69.1531L122.727 69.1522L122.699 65.9563L122.597 65.9572Z" fill="black"/>
<path d="M109.36 74.6191C108.45 78.2642 110.179 81.2364 114.005 82.1915C117.766 83.1302 120.404 81.4759 121.335 77.7483L122.57 72.8001L122.471 72.7754C122.191 73.897 121.35 73.7571 120.129 73.4524L112.41 71.5256C111.19 71.221 110.381 70.9491 110.661 69.8275L110.562 69.8028L109.36 74.6191ZM109.599 74.7839C109.978 73.2665 110.399 72.9859 111.124 73.1671L120.955 75.6209C121.35 75.7197 121.491 76 121.392 76.3959L121.112 77.5175C120.383 80.4369 117.617 80.9203 114.417 80.1216C110.92 79.2488 108.891 77.6209 109.599 74.7839Z" fill="black"/>
<path d="M105.725 84.6494C104.647 86.7712 105.348 88.9197 107.257 89.89C109.121 90.8372 110.473 89.9412 111.795 88.9537L112.566 88.3733C113.491 87.6798 114.453 86.9486 115.726 87.5954C116.954 88.2192 117.372 89.4231 116.748 90.6507C116.163 91.8026 114.981 92.3272 112.998 92.1775L112.952 92.2684L114.922 93.2695C115.625 92.7114 116.491 91.6831 116.914 90.8495C117.861 88.9853 117.19 87.0043 115.386 86.0879C113.689 85.2254 112.422 85.9547 111.406 86.716L110.634 87.2964C109.366 88.2538 108.236 89.0524 106.857 88.3516C105.477 87.6509 105.213 86.1818 105.822 84.9845C106.538 83.575 108.069 83.0375 110.318 83.3409L110.364 83.25L107.817 82.0703C107.091 82.5978 106.172 83.7703 105.725 84.6494Z" fill="black"/>
<path d="M100.349 110.822C99.3968 111.491 98.7268 110.768 97.8117 108.826L95.1983 103.227L101.984 107.193C102.882 107.712 102.99 108.369 102.326 109.054L102.394 109.13L105.638 106.229L105.57 106.153C104.992 106.578 104.305 106.371 103.034 105.638L101.914 104.998L99.524 99.0614L106.406 103.238C107.292 103.769 107.425 104.402 106.761 105.087L106.829 105.163L110.073 102.262L110.005 102.186C109.427 102.611 108.728 102.416 107.469 101.672L98.1257 96.0699L98.0243 96.1606L101.471 104.732L93.564 100.15L93.4626 100.24L97.5029 108.966C98.428 110.944 98.7886 112.035 98.2203 112.726L98.2883 112.802L100.417 110.898L100.349 110.822Z" fill="black"/>
<path d="M91.4802 116.601L91.6022 116.54L90.5127 106.825C90.2672 104.672 90.1453 103.463 90.8322 103.011L90.7872 102.919L88.225 104.181L88.2701 104.272C89.3672 103.884 89.9322 104.761 90.1779 106.876L90.286 107.865L86.885 109.54L84.9879 107.689C84.3001 107.023 84.3044 106.301 85.1284 105.82L85.0834 105.728L81.1791 107.651L81.2242 107.742C81.8948 107.488 82.4702 107.887 83.5284 108.919L91.4802 116.601ZM90.9513 113.526L87.1873 109.846L90.3442 108.291L90.9513 113.526Z" fill="black"/>
<path d="M74.8352 122.006L83.6139 119.977L83.2411 117.307L83.1417 117.33C82.6785 119.478 82.1779 120.03 80.6043 120.393L80.0909 120.512L77.8634 110.872C77.5802 109.646 77.4551 108.803 78.5814 108.543L78.5584 108.443L74.3182 109.423L74.3411 109.522C75.4674 109.262 75.7251 110.075 76.0083 111.301L78.2357 120.941L77.7223 121.059C76.1322 121.427 75.4568 121.147 74.098 119.419L73.9986 119.442L74.8352 122.006Z" fill="black"/>
<path d="M62.1367 113.334C63.2215 110.97 64.003 110.595 65.771 110.592L67.352 110.59C67.879 110.59 68.0324 110.878 68.0331 111.388L68.0401 116.624L66.4931 116.626C64.9121 116.629 64.5033 116.068 64.1616 114.811L64.0596 114.811L64.0647 118.585L64.1667 118.585C64.505 117.326 64.9124 116.901 66.4934 116.898L68.0404 116.896L68.0479 122.421L66.0249 122.424C64.1549 122.427 63.5253 122.002 62.5876 120.015L62.4856 120.015L62.7102 122.701L71.1762 122.689L71.1761 122.587C70.0201 122.589 69.9509 121.739 69.9493 120.481L69.9386 112.525C69.9369 111.267 70.0038 110.417 71.1598 110.415L71.1596 110.313L62.4386 110.325L62.0347 113.334L62.1367 113.334Z" fill="black"/>
<path d="M52.703 112.931C52.9251 113.784 53.1866 114.542 53.6021 114.935L53.5945 114.968C52.012 115.022 50.566 115.77 50.1921 117.394C49.7494 119.316 50.9248 120.877 53.5754 121.488L58.0483 122.518L58.0711 122.419C56.9447 122.159 57.0692 121.316 57.3516 120.09L59.1375 112.337C59.4199 111.111 59.677 110.298 60.8035 110.557L60.8264 110.458L56.5855 109.481L56.5626 109.581C57.6891 109.84 57.5645 110.684 57.2821 111.91L56.4655 115.455L55.7863 115.298C55.2562 115.176 55.0051 114.979 54.8608 114.317C53.8446 109.338 53.6685 108.739 52.4758 108.465C51.9788 108.35 51.1429 108.193 50.8702 108.165L50.8473 108.264C51.5814 108.712 51.7791 109.368 52.703 112.931ZM55.1985 120.955C55.1069 121.352 54.8292 121.498 54.4316 121.406L53.9181 121.288C52.2283 120.898 51.7397 119.46 52.1443 117.704C52.5602 115.898 53.6379 115.082 55.2779 115.46L56.4044 115.72L55.1985 120.955Z" fill="black"/>
<path d="M39.5582 116.86L39.6119 116.773C38.6289 116.165 39.0185 115.406 39.6805 114.336L43.8677 107.571C44.5298 106.502 45.035 105.815 46.0179 106.423L46.0716 106.336L42.3133 104.01L42.2596 104.097C43.2425 104.705 42.9108 105.5 42.2488 106.569L40.5578 109.301C40.3258 108.998 39.8749 108.499 39.2533 108.114C37.114 106.79 35.1337 107.244 33.8633 109.296C32.8075 111.002 33.3425 113.012 35.6553 114.444L39.5582 116.86ZM39.4434 108.711C40.2239 109.195 40.3878 109.576 40.1015 110.038L37.3637 114.462C37.149 114.809 36.8392 114.857 36.4923 114.642L36.0731 114.383C34.5119 113.416 34.699 111.693 35.5937 110.247C36.739 108.397 38.2869 107.996 39.4434 108.711Z" fill="black"/>
<path d="M29.7474 99.423C29.4932 100.268 29.3224 101.051 29.4734 101.602L29.4497 101.627C28.0697 100.85 26.4454 100.738 25.2818 101.93C23.9046 103.341 24.0966 105.286 26.0432 107.186L29.3282 110.392L29.3995 110.319C28.5721 109.512 29.1171 108.856 29.9957 107.955L35.5524 102.261C36.4311 101.361 37.0734 100.8 37.9007 101.608L37.972 101.535L34.8573 98.4951L34.7861 98.5681C35.6134 99.3755 35.0684 100.031 34.1898 100.932L31.6489 103.535L31.1501 103.048C30.7607 102.669 30.6489 102.369 30.8695 101.73C32.5904 96.9479 32.7513 96.3449 31.8753 95.49C31.5103 95.1338 30.8782 94.5645 30.6598 94.3988L30.5886 94.4718C30.9826 95.2364 30.8104 95.8997 29.7474 99.423ZM27.707 107.575C27.422 107.867 27.1092 107.846 26.8172 107.561L26.44 107.193C25.1991 105.982 25.5296 104.5 26.7882 103.21C28.0823 101.884 29.4271 101.747 30.6316 102.923L31.4589 103.73L27.707 107.575Z" fill="black"/>
<path d="M27.6433 89.596C25.8835 86.7266 22.4786 86.1825 19.2325 88.1733C15.9284 90.1997 14.9503 93.3523 16.7278 96.2506C18.4876 99.12 21.8925 99.6641 25.1386 97.6733C28.4427 95.6469 29.4209 92.4943 27.6433 89.596ZM27.4226 89.6914C28.6314 91.6623 26.9349 94.0988 24.0076 95.8941C20.9933 97.7427 18.1572 98.126 16.9485 96.1552C15.7397 94.1843 17.4363 91.7478 20.3636 89.9525C23.3778 88.1039 26.2139 87.7206 27.4226 89.6914Z" fill="black"/>
<path d="M26.873 83.3077C24.7261 81.4181 23.2197 81.0679 20.6041 82.0331L13.6185 84.6108C12.4383 85.0463 11.6173 85.2767 11.2171 84.1922L11.1214 84.2275L12.628 88.3104L12.7237 88.2751C12.3235 87.1906 13.0974 86.8326 14.2776 86.3971L22.5391 83.3486C24.453 82.6424 25.2271 82.6285 26.8109 83.385L26.873 83.3077Z" fill="black"/>
<path d="M17.4518 70.4762C19.9674 71.139 20.4711 71.8445 20.777 73.5859L21.0505 75.143C21.1417 75.6621 20.8835 75.8628 20.3812 75.951L15.2242 76.8569L14.9565 75.3332C14.683 73.7761 15.1649 73.2771 16.3451 72.7246L16.3275 72.6242L12.6104 73.2771L12.6281 73.3776C13.9259 73.4948 14.4151 73.8231 14.6886 75.3803L14.9563 76.9039L9.51459 77.8598L9.16459 75.8673C8.84105 74.0255 9.15082 73.3325 10.9481 72.0675L10.9304 71.967L8.32315 72.6494L9.78787 80.9877L9.88833 80.9701C9.68833 79.8315 10.5137 79.6175 11.7528 79.3998L19.5888 78.0233C20.8278 77.8057 21.6768 77.7256 21.8768 78.8642L21.9772 78.8465L20.4684 70.257L17.4342 70.3758L17.4518 70.4762Z" fill="black"/>
<path d="M20.5723 62.6936C20.6788 61.065 20.2814 59.8465 19.9592 59.0418L17.2649 58.559L17.2583 58.6608C19.3425 59.6148 20.4457 60.9817 20.3304 62.7459C20.1863 64.9512 17.4785 66.2393 13.95 66.0087C10.4215 65.7781 7.90225 64.1824 8.0486 61.9432C8.16391 60.1789 9.35891 59.0986 11.3121 58.4085L11.3187 58.3067L8.97107 58.2555C8.51294 59.0092 7.92641 60.1634 7.81554 61.8598C7.5949 65.2356 10.0466 67.8661 13.8465 68.1144C17.7481 68.3694 20.3517 66.0694 20.5723 62.6936Z" fill="black"/>
<path d="M11.4528 45.2264L8.79734 53.8362L11.2939 54.8553L11.324 54.7578C9.69886 53.2781 9.47311 52.568 9.94909 51.0248L10.1044 50.5212L19.5589 53.4372C20.7611 53.8079 21.5533 54.1234 21.2126 55.2281L21.31 55.2581L22.5927 51.0994L22.4952 51.0694C22.1545 52.174 21.3222 51.9885 20.1201 51.6177L10.6656 48.7017L10.8209 48.1982C11.3019 46.6386 11.8833 46.1953 14.0596 45.8881L14.0896 45.7906L11.4528 45.2264Z" fill="black"/>
<path d="M25.5486 44.6169C26.7034 42.5359 26.0815 40.3632 24.2086 39.3239C22.3802 38.3092 20.9969 39.1553 19.6401 40.0938L18.8478 40.6457C17.8987 41.305 16.91 42.0006 15.6613 41.3077C14.4573 40.6395 14.0835 39.4211 14.7517 38.2171C15.3786 37.0874 16.5788 36.6063 18.5554 36.8283L18.6049 36.7391L16.6725 35.6668C15.9495 36.1988 15.0468 37.1949 14.5931 38.0124C13.5785 39.8408 14.1772 41.845 15.9461 42.8267C17.6109 43.7505 18.9034 43.068 19.9466 42.3443L20.739 41.7924C22.0413 40.882 23.2001 40.1252 24.5528 40.8758C25.9054 41.6265 26.1158 43.1042 25.4642 44.2785C24.697 45.6609 23.1468 46.1421 20.9109 45.7568L20.8614 45.846L23.3636 47.1179C24.108 46.6172 25.0701 45.4791 25.5486 44.6169Z" fill="black"/>
<path d="M34.9373 25.4412L34.6869 25.1634L26.8573 32.2195L27.1077 32.4973L34.9373 25.4412Z" fill="black"/>
</svg>
