<svg width="30" height="23" viewBox="0 0 30 23" fill="none" xmlns="http://www.w3.org/2000/svg">
<path d="M11.794 0.255997C6.93 1.6 0.53 5.056 0.53 13.056C0.53 19.392 4.882 22.272 8.722 22.272C12.306 22.272 14.226 19.776 14.226 17.28C14.226 14.912 12.626 12.544 9.234 11.904C6.546 11.392 4.114 10.944 4.114 8.512C4.114 5.12 8.466 1.92 11.922 0.639999L11.794 0.255997ZM27.41 0.255997C22.546 1.6 16.146 5.056 16.146 13.056C16.146 19.392 20.498 22.272 24.338 22.272C27.922 22.272 29.842 19.776 29.842 17.28C29.842 14.912 28.242 12.544 24.85 11.904C22.162 11.392 19.73 10.944 19.73 8.512C19.73 5.12 24.082 1.92 27.538 0.639999L27.41 0.255997Z" fill="#F8C525"/>
</svg>
